#Comment line ignore any data following # character 
#Hierarchical Translation and Rotation (.htr) file 
[Header]	
#Header keywords are followed by a single value 
FileType HTR		#Single word string
DataType HTRS		#Translation followed by rotation and scale data
FileVersion 1		#integer
NumSegments 64		#integer
NumFrames 3		#integer
DataFrameRate 30		#integer, data frame rate in this file
EulerRotationOrder ZYX
CalibrationUnits mm
RotationUnits Degrees
GlobalAxisofGravity Y
BoneLengthAxis Y
ScaleFactor 1.00
[SegmentNames&Hierarchy]
#CHILD	PARENT
Pinger_Root GLOBAL
Pelvis Pinger_Root
L_Hip Pelvis
R_Hip Pelvis
Rear_Leg01 Pelvis
Spine1 Pelvis
L_Leg01 L_Hip
L_Leg02 L_Leg01
L_Leg03 L_Leg02
L_Foot L_Leg03
L_Toe1_01 L_Foot
L_Toe2_01 L_Foot
L_Toe3_01 L_Foot
planeAlignerLeft L_Foot
L_Toe1_02 L_Toe1_01
L_Toe1_03 L_Toe1_02
L_Toe2_02 L_Toe2_01
L_Toe2_03 L_Toe2_02
L_Toe3_02 L_Toe3_01
L_Toe3_03 L_Toe3_02
planeLockWeightLeft planeAlignerLeft
R_Leg01 R_Hip
R_Leg02 R_Leg01
R_Leg03 R_Leg02
R_Foot R_Leg03
planeAlignerRight R_Foot
R_Toe1_01 R_Foot
R_Toe2_01 R_Foot
R_Toe3_01 R_Foot
planeLockWeightRight planeAlignerRight
R_Toe1_02 R_Toe1_01
R_Toe1_03 R_Toe1_02
R_Toe2_02 R_Toe2_01
R_Toe2_03 R_Toe2_02
R_Toe3_02 R_Toe3_01
R_Toe3_03 R_Toe3_02
Rear_Leg02 Rear_Leg01
Rear_Leg03 Rear_Leg02
Rear_Leg04 Rear_Leg03
Rear_Foot Rear_Leg04
planeAlignerCenter Rear_Foot
Rear_Toe1_01 Rear_Foot
Rear_Toe2_01 Rear_Foot
Rear_Toe3_01 Rear_Foot
planeLockWeightCenter planeAlignerCenter
Rear_Toe1_02 Rear_Toe1_01
Rear_Toe1_03 Rear_Toe1_02
Rear_Toe2_02 Rear_Toe2_01
Rear_Toe2_03 Rear_Toe2_02
Rear_Toe3_02 Rear_Toe3_01
Rear_Toe3_03 Rear_Toe3_02
Back_Bone Spine1
Head Spine1
Motor_Bone Back_Bone
Ping_Mechanism Back_Bone
BN_LookIK Head
bottomMouth Head
L_Mouth01 Head
L_mouthFront Head
mouthGun Head
R_Mouth01 Head
R_mouthFront Head
TopMouth Head
weapon_bone Head
[BasePosition]
#SegmentName Tx, Ty, Tz, Rx, Ry, Rz, BoneLength
Pinger_Root 0.000000 0.000000 0.000000 -90.000000 0.000000 0.000000 10.000000 
Pelvis 0.000000 0.000000 0.000000 0.000000 0.000000 0.000000 10.000000 
L_Hip 0.000000 0.000000 0.000000 0.000000 0.000000 0.000000 10.000000 
R_Hip 0.000000 0.000000 0.000000 0.000000 0.000000 0.000000 10.000000 
Rear_Leg01 0.000000 0.000000 0.000000 0.000000 0.000000 0.000000 10.000000 
Spine1 0.000000 0.000000 0.000000 0.000000 0.000000 0.000000 10.000000 
L_Leg01 0.000000 0.000000 0.000000 0.000000 0.000000 0.000000 10.000000 
L_Leg02 0.000000 0.000000 0.000000 0.000000 0.000000 0.000000 10.000000 
L_Leg03 0.000000 0.000000 0.000000 0.000000 0.000000 0.000000 10.000000 
L_Foot 0.000000 0.000000 0.000000 0.000000 0.000000 0.000000 10.000000 
L_Toe1_01 0.000000 0.000000 0.000000 0.000000 0.000000 0.000000 10.000000 
L_Toe2_01 0.000000 0.000000 0.000000 0.000000 0.000000 0.000000 10.000000 
L_Toe3_01 0.000000 0.000000 0.000000 0.000000 0.000000 0.000000 10.000000 
planeAlignerLeft 0.000000 0.000000 0.000000 0.000000 0.000000 0.000000 10.000000 
L_Toe1_02 0.000000 0.000000 0.000000 0.000000 0.000000 0.000000 10.000000 
L_Toe1_03 0.000000 0.000000 0.000000 0.000000 0.000000 0.000000 10.000000 
L_Toe2_02 0.000000 0.000000 0.000000 0.000000 0.000000 0.000000 10.000000 
L_Toe2_03 0.000000 0.000000 0.000000 0.000000 0.000000 0.000000 10.000000 
L_Toe3_02 0.000000 0.000000 0.000000 0.000000 0.000000 0.000000 10.000000 
L_Toe3_03 0.000000 0.000000 0.000000 0.000000 0.000000 0.000000 10.000000 
planeLockWeightLeft 0.000000 0.000000 0.000000 0.000000 0.000000 0.000000 10.000000 
R_Leg01 0.000000 0.000000 0.000000 0.000000 0.000000 0.000000 10.000000 
R_Leg02 0.000000 0.000000 0.000000 0.000000 0.000000 0.000000 10.000000 
R_Leg03 0.000000 0.000000 0.000000 0.000000 0.000000 0.000000 10.000000 
R_Foot 0.000000 0.000000 0.000000 0.000000 0.000000 0.000000 10.000000 
planeAlignerRight 0.000000 0.000000 0.000000 0.000000 0.000000 0.000000 10.000000 
R_Toe1_01 0.000000 0.000000 0.000000 0.000000 0.000000 0.000000 10.000000 
R_Toe2_01 0.000000 0.000000 0.000000 0.000000 0.000000 0.000000 10.000000 
R_Toe3_01 0.000000 0.000000 0.000000 0.000000 0.000000 0.000000 10.000000 
planeLockWeightRight 0.000000 0.000000 0.000000 0.000000 0.000000 0.000000 10.000000 
R_Toe1_02 0.000000 0.000000 0.000000 0.000000 0.000000 0.000000 10.000000 
R_Toe1_03 0.000000 0.000000 0.000000 0.000000 0.000000 0.000000 10.000000 
R_Toe2_02 0.000000 0.000000 0.000000 0.000000 0.000000 0.000000 10.000000 
R_Toe2_03 0.000000 0.000000 0.000000 0.000000 0.000000 0.000000 10.000000 
R_Toe3_02 0.000000 0.000000 0.000000 0.000000 0.000000 0.000000 10.000000 
R_Toe3_03 0.000000 0.000000 0.000000 0.000000 0.000000 0.000000 10.000000 
Rear_Leg02 0.000000 0.000000 0.000000 0.000000 0.000000 0.000000 10.000000 
Rear_Leg03 0.000000 0.000000 0.000000 0.000000 0.000000 0.000000 10.000000 
Rear_Leg04 0.000000 0.000000 0.000000 0.000000 0.000000 0.000000 10.000000 
Rear_Foot 0.000000 0.000000 0.000000 0.000000 0.000000 0.000000 10.000000 
planeAlignerCenter 0.000000 0.000000 0.000000 0.000000 0.000000 0.000000 10.000000 
Rear_Toe1_01 0.000000 0.000000 0.000000 0.000000 0.000000 0.000000 10.000000 
Rear_Toe2_01 0.000000 0.000000 0.000000 0.000000 0.000000 0.000000 10.000000 
Rear_Toe3_01 0.000000 0.000000 0.000000 0.000000 0.000000 0.000000 10.000000 
planeLockWeightCenter 0.000000 0.000000 0.000000 0.000000 0.000000 0.000000 10.000000 
Rear_Toe1_02 0.000000 0.000000 0.000000 0.000000 0.000000 0.000000 10.000000 
Rear_Toe1_03 0.000000 0.000000 0.000000 0.000000 0.000000 0.000000 10.000000 
Rear_Toe2_02 0.000000 0.000000 0.000000 0.000000 0.000000 0.000000 10.000000 
Rear_Toe2_03 0.000000 0.000000 0.000000 0.000000 0.000000 0.000000 10.000000 
Rear_Toe3_02 0.000000 0.000000 0.000000 0.000000 0.000000 0.000000 10.000000 
Rear_Toe3_03 0.000000 0.000000 0.000000 0.000000 0.000000 0.000000 10.000000 
Back_Bone 0.000000 0.000000 0.000000 0.000000 0.000000 0.000000 10.000000 
Head 0.000000 0.000000 0.000000 0.000000 0.000000 0.000000 10.000000 
Motor_Bone 0.000000 0.000000 0.000000 0.000000 0.000000 0.000000 10.000000 
Ping_Mechanism 0.000000 0.000000 0.000000 0.000000 0.000000 0.000000 10.000000 
BN_LookIK 0.000000 0.000000 0.000000 0.000000 0.000000 0.000000 10.000000 
bottomMouth 0.000000 0.000000 0.000000 0.000000 0.000000 0.000000 10.000000 
L_Mouth01 0.000000 0.000000 0.000000 0.000000 0.000000 0.000000 10.000000 
L_mouthFront 0.000000 0.000000 0.000000 0.000000 0.000000 0.000000 10.000000 
mouthGun 0.000000 0.000000 0.000000 0.000000 0.000000 0.000000 10.000000 
R_Mouth01 0.000000 0.000000 0.000000 0.000000 0.000000 0.000000 10.000000 
R_mouthFront 0.000000 0.000000 0.000000 0.000000 0.000000 0.000000 10.000000 
TopMouth 0.000000 0.000000 0.000000 0.000000 0.000000 0.000000 10.000000 
weapon_bone 0.000000 0.000000 0.000000 0.000000 0.000000 0.000000 10.000000 
#Beginning of Data. Separated by tabs
#Fr	Tx	Ty	Tz	Rx	Ry	Rz	SF
[Pinger_Root]
20 0.000000 0.000000 0.000000 -0.000075 -0.000000 -0.000020 0.000000
21 0.000000 0.000000 0.000000 -0.000075 -0.000000 -0.000020 0.000000
22 0.000000 0.000000 0.000000 -0.000075 -0.000000 -0.000020 0.000000
[Pelvis]
20 -263.894440 1515.873535 5197.385254 -64.821632 -86.114716 73.183823 5420.362305
21 -280.431702 1534.476807 5212.524414 -82.206474 -87.754326 88.529083 5440.925781
22 -275.729370 1540.865845 5198.829102 -156.785645 -88.920074 160.673065 5429.375488
[L_Hip]
20 5.766392 125.831482 872.656799 -178.253296 -81.787758 87.381302 881.701050
21 5.766392 125.831482 872.656799 -178.253311 -81.787712 87.381248 881.701050
22 5.766392 125.831482 872.656799 -178.253342 -81.787758 87.381340 881.701050
[R_Hip]
20 5.765438 125.836372 -872.654907 -1.744667 81.787285 87.380089 881.699829
21 5.765438 125.836372 -872.654907 -1.744433 81.787285 87.380051 881.699829
22 5.765438 125.836372 -872.654907 -1.744194 81.787186 87.379898 881.699829
[Rear_Leg01]
20 -192.298416 -925.602966 -0.001907 163.521240 -2.319540 -146.594955 945.367432
21 -192.298416 -925.602966 -0.001907 158.539978 -4.532662 -154.805054 945.367432
22 -192.298416 -925.602966 -0.001907 154.010300 -9.311829 -163.149399 945.367432
[Spine1]
20 290.604584 5.007505 0.000477 -4.771170 1.602012 17.708967 290.647736
21 290.604584 5.007505 0.000477 -2.442150 2.149405 19.349215 290.647736
22 290.604584 5.007505 0.000477 0.203366 2.449917 21.421621 290.647736
[L_Leg01]
20 761.932007 -0.002384 -0.069261 76.463432 -48.641884 -77.115067 761.932068
21 761.932007 -0.002384 -0.069261 74.700127 -45.003963 -75.045822 761.932068
22 761.932007 -0.002384 -0.069261 72.917480 -40.685280 -72.970741 761.932068
[L_Leg02]
20 1441.140503 -0.000954 -0.000715 -1.259267 0.842589 -92.374245 1441.140503
21 1441.140503 -0.000954 -0.000715 -1.289688 0.816493 -92.777786 1441.140503
22 1441.140503 -0.000954 -0.000715 -1.333894 0.773070 -93.729782 1441.140503
[L_Leg03]
20 1686.963989 -0.000715 -0.000954 0.104772 -0.009797 81.551552 1686.963989
21 1686.963989 -0.000715 -0.000954 0.097586 -0.012104 83.658272 1686.963989
22 1686.963989 -0.000715 -0.000954 0.086651 -0.011446 86.633484 1686.963989
[L_Foot]
20 3041.570068 -30.715107 11.297464 -6.335938 15.829496 51.815392 3041.746094
21 3041.570068 -30.715107 11.297464 -6.347163 15.931190 51.876781 3041.746094
22 3041.570068 -30.715107 11.297464 -6.697660 15.985327 51.508553 3041.746094
[L_Toe1_01]
20 -188.216690 -224.732346 -21.137953 89.908325 -3.436280 -170.005142 293.899567
21 -188.216690 -224.732346 -21.137953 89.925789 -3.438807 -170.407669 293.899567
22 -188.216690 -224.732346 -21.137953 89.943260 -3.441211 -170.810196 293.899567
[L_Toe2_01]
20 200.746536 -219.926590 148.838394 -78.753677 -15.519696 -39.221016 332.896027
21 200.746536 -219.926590 148.838394 -78.863525 -15.606397 -38.769604 332.896027
22 200.746536 -219.926590 148.838394 -78.974121 -15.692263 -38.317825 332.896027
[L_Toe3_01]
20 188.832520 -219.859131 -191.078659 -103.667397 15.939025 -39.887051 347.140900
21 188.832520 -219.859131 -191.078659 -103.534027 16.043783 -39.426029 347.140900
22 188.832520 -219.859131 -191.078659 -103.399704 16.147495 -38.964493 347.140900
[planeAlignerLeft]
20 0.812531 -811.448792 -0.314951 0.000000 -90.000000 -90.001900 811.449280
21 0.812531 -811.448792 -0.314951 0.000000 -90.000000 -90.001900 811.449280
22 0.812531 -811.448792 -0.314951 0.000000 -90.000000 -90.001900 811.449280
[L_Toe1_02]
20 413.761139 0.000477 0.000000 0.001420 -21.520498 0.001420 413.761139
21 413.761139 0.000477 0.000000 0.001421 -21.403288 0.001421 413.761139
22 413.761139 0.000477 0.000000 0.001422 -21.286074 0.001422 413.761139
[L_Toe1_03]
20 464.317322 0.000358 -0.000089 0.026582 84.938950 0.026582 464.317322
21 464.317322 0.000358 -0.000089 0.028448 85.271049 0.028448 464.317322
22 464.317322 0.000358 -0.000089 0.030595 85.603188 0.030595 464.317322
[L_Toe2_02]
20 342.235809 -0.000477 0.000238 0.001179 -78.716934 0.001179 342.235809
21 342.235809 -0.000477 0.000238 0.001179 -78.831970 0.001179 342.235809
22 342.235809 -0.000477 0.000238 0.001179 -78.946945 0.001179 342.235809
[L_Toe2_03]
20 420.210846 -0.000715 0.000000 -179.998047 72.185646 -179.994522 420.210846
21 420.210846 -0.000715 0.000000 -179.998154 71.776634 -179.994598 420.210846
22 420.210846 -0.000715 0.000000 -179.998215 71.367615 -179.994675 420.210846
[L_Toe3_02]
20 329.270111 0.000954 0.000000 0.001176 -82.685013 0.001176 329.270111
21 329.270111 0.000954 0.000000 0.001176 -82.785637 0.001176 329.270111
22 329.270111 0.000954 0.000000 0.001176 -82.886055 0.001176 329.270111
[L_Toe3_03]
20 439.137451 -0.001907 0.000954 179.990326 67.861862 179.997452 439.137451
21 439.137451 -0.001907 0.000954 179.990433 67.478264 179.997559 439.137451
22 439.137451 -0.001907 0.000954 179.990524 67.094635 179.997650 439.137451
[planeLockWeightLeft]
20 -0.000954 0.000238 -0.000305 -0.011826 -0.004376 0.005620 0.001029
21 -0.000954 0.000238 -0.000305 -0.011826 -0.004376 0.005620 0.001029
22 -0.000954 0.000238 -0.000305 -0.011826 -0.004376 0.005620 0.001029
[R_Leg01]
20 761.455627 -0.001907 -0.000358 114.096115 -10.754420 63.397469 761.455688
21 761.455627 -0.001907 -0.000358 112.641129 -21.552298 60.947849 761.455688
22 761.455627 -0.001907 -0.000358 111.528801 -32.459797 59.313255 761.455688
[R_Leg02]
20 1441.140625 0.000000 -0.000238 0.203170 0.011381 -87.201385 1441.140625
21 1441.140625 0.000000 -0.000238 0.177470 -0.032299 -97.811218 1441.140625
22 1441.140625 0.000000 -0.000238 0.150849 -0.065243 -106.552574 1441.140625
[R_Leg03]
20 1686.963989 0.000954 0.001431 -0.056514 0.013315 95.696259 1686.963989
21 1686.963989 0.000954 0.001431 -0.074575 0.014066 90.121086 1686.963989
22 1686.963989 0.000954 0.001431 -0.099962 0.011335 82.917038 1686.963989
[R_Foot]
20 3041.560059 -30.531288 -11.204481 0.680843 -27.757378 67.287590 3041.734131
21 3041.560059 -30.531288 -11.204481 0.518740 -28.187363 71.866142 3041.734131
22 3041.560059 -30.531288 -11.204481 0.153437 -28.382196 76.193054 3041.734131
[planeAlignerRight]
20 -0.635147 -812.270569 -0.364304 0.000000 -89.960434 -90.005180 812.270874
21 -0.635147 -812.270569 -0.364304 0.000000 -89.960434 -90.005180 812.270874
22 -0.635147 -812.270569 -0.364304 0.000000 -89.960434 -90.005180 812.270874
[R_Toe1_01]
20 -188.383347 -224.864899 21.052242 72.751053 -1.815881 -171.149078 294.101532
21 -188.383347 -224.864899 21.052242 72.609024 -0.890933 -165.992004 294.101532
22 -188.383347 -224.864899 21.052242 72.554047 -0.058579 -162.554321 294.101532
[R_Toe2_01]
20 200.637817 -220.002121 -148.787384 -99.915176 29.724703 -56.894997 332.857574
21 200.637817 -220.002121 -148.787384 -101.638374 28.922768 -60.432743 332.857574
22 200.637817 -220.002121 -148.787384 -103.024635 28.302525 -63.278362 332.857574
[R_Toe3_01]
20 188.606735 -220.092957 191.126343 -67.158432 -10.102448 -73.381248 347.192566
21 188.606735 -220.092957 191.126343 -67.181206 -9.541461 -77.086349 347.192566
22 188.606735 -220.092957 191.126343 -67.349312 -8.790094 -79.558937 347.192566
[planeLockWeightRight]
20 -0.000477 0.000000 0.000000 -0.011823 -0.004379 -0.000027 0.000477
21 -0.000477 0.000000 0.000000 -0.011823 -0.004379 -0.000027 0.000477
22 -0.000477 0.000000 0.000000 -0.011823 -0.004379 -0.000027 0.000477
[R_Toe1_02]
20 413.762085 0.000477 -0.000119 0.001386 -25.693256 0.001386 413.762085
21 413.762085 0.000477 -0.000119 0.001384 -25.926645 0.001384 413.762085
22 413.762085 0.000477 -0.000119 0.001390 -25.181166 0.001390 413.762085
[R_Toe1_03]
20 464.317810 0.000000 0.001088 0.004627 60.613888 0.004627 464.317810
21 464.317810 0.000000 0.001088 0.003438 50.077862 0.003438 464.317810
22 464.317810 0.000000 0.001088 0.002887 42.020920 0.002887 464.317810
[R_Toe2_02]
20 342.234741 -0.000954 0.000238 0.001186 -73.169998 0.001186 342.234741
21 342.234741 -0.000954 0.000238 0.001187 -72.868492 0.001187 342.234741
22 342.234741 -0.000954 0.000238 0.001188 -71.949120 0.001188 342.234741
[R_Toe2_03]
20 420.210846 0.000715 -0.000268 -0.026042 87.629745 -0.029539 420.210846
21 420.210846 0.000715 -0.000268 0.041811 86.782951 0.041811 420.210846
22 420.210846 0.000715 -0.000268 0.023647 84.310242 0.023647 420.210846
[R_Toe3_02]
20 329.270355 -0.000477 -0.000954 0.001181 -77.056839 0.001181 329.270355
21 329.270355 -0.000477 -0.000954 0.001183 -75.514801 0.001183 329.270355
22 329.270355 -0.000477 -0.000954 0.001185 -73.972778 0.001185 329.270355
[R_Toe3_03]
20 439.137939 0.000238 0.001431 0.000000 89.940659 0.003497 439.137939
21 439.137939 0.000238 0.001431 0.007797 86.039978 0.009547 439.137939
22 439.137939 0.000238 0.001431 0.016900 82.035599 0.016900 439.137939
[Rear_Leg02]
20 1162.777710 -0.029802 0.005960 12.930722 -10.941987 -122.227928 1162.777710
21 1162.777710 -0.029802 0.005960 13.916684 -10.322078 -140.149429 1162.777710
22 1162.777710 -0.029802 0.005960 13.056723 -9.277197 -158.114380 1162.777710
[Rear_Leg03]
20 607.192505 -0.013351 -0.073195 0.010105 -0.005836 76.369179 607.192505
21 607.192505 -0.013351 -0.073195 0.010067 -0.005900 77.099052 607.192505
22 607.192505 -0.013351 -0.073195 0.010055 -0.005920 77.326874 607.192505
[Rear_Leg04]
20 995.874512 -0.020504 -0.011921 -0.042702 -0.018473 87.369835 995.874573
21 995.874512 -0.020504 -0.011921 -0.043111 -0.017497 89.976738 995.874573
22 995.874512 -0.020504 -0.011921 -0.043236 -0.017185 90.803757 995.874573
[Rear_Foot]
20 3096.176270 -0.067472 -0.041425 -155.681625 47.337334 11.072437 3096.176270
21 3096.176270 -0.067472 -0.041425 -157.322678 44.036240 14.166926 3096.176270
22 3096.176270 -0.067472 -0.041425 -160.498672 42.342110 16.873457 3096.176270
[planeAlignerCenter]
20 0.350077 0.966311 -838.790894 0.000009 0.000003 -179.999985 838.791565
21 0.350077 0.966311 -838.790894 0.000009 0.000003 -179.999985 838.791565
22 0.350077 0.966311 -838.790894 0.000009 0.000003 -179.999985 838.791565
[Rear_Toe1_01]
20 0.653352 83.966492 -371.173737 0.072923 26.437876 90.040199 380.553192
21 0.653352 83.966492 -371.173737 0.073783 22.077284 90.037170 380.553192
22 0.653352 83.966492 -371.173737 0.062543 20.060438 90.038910 380.553192
[Rear_Toe2_01]
20 178.200760 -294.826019 -362.060547 8.601041 61.200668 -61.261784 499.765686
21 178.200760 -294.826019 -362.060547 3.734916 51.114353 -66.198112 499.765686
22 178.200760 -294.826019 -362.060547 2.170128 45.668941 -67.840897 499.765686
[Rear_Toe3_01]
20 -153.359680 -308.780914 -362.060852 -9.829659 61.048485 -122.270111 499.952881
21 -153.359680 -308.780914 -362.060852 -4.373841 51.089619 -116.761337 499.952881
22 -153.359680 -308.780914 -362.060852 -2.583722 45.691063 -114.898308 499.952881
[planeLockWeightCenter]
20 -0.000062 0.000238 0.000000 -0.011814 -0.004373 -0.000015 0.000246
21 -0.000062 0.000238 0.000000 -0.011814 -0.004373 -0.000015 0.000246
22 -0.000062 0.000238 0.000000 -0.011814 -0.004373 -0.000015 0.000246
[Rear_Toe1_02]
20 379.707825 0.194073 0.000477 -0.002648 -32.665005 -0.002648 379.707855
21 379.707825 0.194073 0.000477 -0.002645 -32.881527 -0.002645 379.707855
22 379.707825 0.194073 0.000477 -0.002638 -33.438808 -0.002638 379.707855
[Rear_Toe1_03]
20 500.129700 0.165701 0.000119 -179.930374 89.029045 -179.933884 500.129761
21 500.129700 0.165701 0.000119 -0.054145 88.821144 -0.057642 500.129761
22 500.129700 0.165701 0.000119 0.014763 80.880386 0.014763 500.129761
[Rear_Toe2_02]
20 340.494507 0.000238 -0.000954 179.998825 -85.492111 179.998825 340.494507
21 340.494507 0.000238 -0.000954 179.998825 -86.411499 179.998825 340.494507
22 340.494507 0.000238 -0.000954 179.998825 -88.055496 179.998825 340.494507
[Rear_Toe2_03]
20 433.103577 0.000000 0.000238 -179.996643 43.380333 179.999557 433.103546
21 433.103577 0.000000 0.000238 -179.996460 50.208939 179.999832 433.103546
22 433.103577 0.000000 0.000238 -179.996033 59.061855 -179.999664 433.103546
[Rear_Toe3_02]
20 340.494141 -0.000358 -0.000477 -179.994171 -85.519089 -179.994171 340.494171
21 340.494141 -0.000358 -0.000477 -179.994171 -86.465698 -179.994171 340.494171
22 340.494141 -0.000358 -0.000477 -179.997681 -88.188469 -179.997681 340.494171
[Rear_Toe3_03]
20 433.103577 0.001431 -0.000238 179.993225 43.758480 -179.999191 433.103546
21 433.103577 0.001431 -0.000238 179.992813 50.558735 -179.999756 433.103546
22 433.103577 0.001431 -0.000238 -179.999634 59.408905 -179.996002 433.103546
[Back_Bone]
20 1312.175781 -701.934692 0.000954 -2.976008 -3.508674 -82.491798 1488.125488
21 1312.175781 -701.934692 0.000954 -2.823197 -3.651206 -81.995918 1488.125488
22 1312.175781 -701.934692 0.000954 -2.571976 -3.649527 -81.568359 1488.125488
[Head]
20 1406.159424 809.709290 0.001431 -4.618094 -0.136873 19.915937 1622.625488
21 1406.159424 809.709290 0.001431 -3.818763 -0.293934 18.339403 1622.625488
22 1406.159424 809.709290 0.001431 -2.662442 -0.588977 16.419662 1622.625488
[Motor_Bone]
20 1158.364380 -417.834747 0.000477 -1.983416 -0.664974 -106.649788 1231.419434
21 1158.364380 -417.834747 0.000477 -1.881091 -0.504669 -106.488708 1231.419434
22 1158.364380 -417.834747 0.000477 -1.608616 -0.251287 -106.237038 1231.419434
[Ping_Mechanism]
20 1232.139648 -441.755981 4.587621 0.000103 -0.000053 82.120995 1308.945190
21 1225.295410 -438.534515 -0.517549 0.000103 -0.000053 82.120995 1301.407593
22 1216.667236 -433.510712 -5.394153 0.000103 -0.000053 82.120995 1291.603516
[BN_LookIK]
20 193.241119 1380.371704 -0.002861 0.000000 89.965736 -31.038179 1393.832153
21 193.241119 1380.371704 -0.002861 0.000000 89.965736 -31.038179 1393.832153
22 193.241119 1380.371704 -0.002861 0.000000 89.965736 -31.038179 1393.832153
[bottomMouth]
20 -435.092926 615.759399 -0.000954 -0.000022 0.000016 73.527184 753.966492
21 -435.092926 615.759399 -0.000954 -0.000022 0.000016 73.527184 753.966492
22 -435.092926 615.759399 -0.000954 -0.000022 0.000016 73.527184 753.966492
[L_Mouth01]
20 554.440979 7.658243 838.222046 150.204178 23.759130 109.605339 1005.027161
21 554.440979 7.658243 838.222046 150.204178 23.759130 109.605339 1005.027161
22 554.440979 7.658243 838.222046 150.204178 23.759130 109.605339 1005.027161
[L_mouthFront]
20 551.629089 934.514771 339.150421 0.000081 2.804060 79.119301 1136.941284
21 551.629089 934.514771 339.150421 0.000081 2.804060 79.119301 1136.941284
22 551.629089 934.514771 339.150421 0.000081 2.804060 79.119301 1136.941284
[mouthGun]
20 55.332661 1627.420898 0.000000 0.000023 0.000009 -11.038128 1628.361328
21 55.332661 1627.420898 0.000000 0.000023 0.000009 -11.038128 1628.361328
22 55.332661 1627.420898 0.000000 0.000023 0.000009 -11.038128 1628.361328
[R_Mouth01]
20 554.442383 7.659197 -838.223938 29.795891 -23.759109 109.605331 1005.029541
21 554.442383 7.659197 -838.223938 29.795891 -23.759109 109.605331 1005.029541
22 554.442383 7.659197 -838.223938 29.795891 -23.759109 109.605331 1005.029541
[R_mouthFront]
20 551.629089 934.514282 -339.151367 0.000029 -2.803930 79.119133 1136.941162
21 551.629089 934.514282 -339.151367 0.000029 -2.803930 79.119133 1136.941162
22 551.629089 934.514282 -339.151367 0.000029 -2.803930 79.119133 1136.941162
[TopMouth]
20 461.269867 -56.106091 -0.008583 -0.000059 -0.000268 92.025169 464.669525
21 461.269867 -56.106091 -0.008583 -0.000059 -0.000268 92.025169 464.669525
22 461.269867 -56.106091 -0.008583 -0.000059 -0.000268 92.025169 464.669525
[weapon_bone]
20 -987.239868 1448.372803 0.001431 0.000000 89.965736 -31.038221 1752.833740
21 -987.239868 1448.372803 0.001431 0.000000 89.965736 -31.038221 1752.833740
22 -987.239868 1448.372803 0.001431 0.000000 89.965736 -31.038221 1752.833740
